<svg xmlns="http://www.w3.org/2000/svg" viewBox="0 0 1600 1200" role="img" aria-label="Managed table setup placeholder">
  <defs>
    <linearGradient id="bg" x1="0" y1="0" x2="1" y2="1">
      <stop offset="0" stop-color="#faf3ea"/>
      <stop offset="1" stop-color="#ead3bb"/>
    </linearGradient>
    <linearGradient id="cloth" x1="0" y1="0" x2="0" y2="1">
      <stop offset="0" stop-color="#fcfbf7"/>
      <stop offset="1" stop-color="#f0e6d6"/>
    </linearGradient>
  </defs>
  <rect width="1600" height="1200" fill="url(#bg)"/>
  <rect x="0" y="0" width="1600" height="320" fill="#f6e7d6"/>
  <rect x="132" y="250" width="1336" height="812" rx="46" fill="#fff6ec" stroke="#ead8c3" stroke-width="10"/>
  <rect x="232" y="378" width="1136" height="540" rx="28" fill="url(#cloth)"/>
  <path d="M232 560c198-46 346-60 444-44 120 20 198 68 318 74 132 8 248-26 374-112v440H232V560Z" fill="#f5efe6" opacity=".58"/>
  <ellipse cx="494" cy="582" rx="144" ry="108" fill="#ffffff" stroke="#e6d6c3" stroke-width="10"/>
  <ellipse cx="1106" cy="582" rx="144" ry="108" fill="#ffffff" stroke="#e6d6c3" stroke-width="10"/>
  <ellipse cx="800" cy="718" rx="216" ry="138" fill="#ffffff" stroke="#e6d6c3" stroke-width="12"/>
  <ellipse cx="800" cy="718" rx="134" ry="76" fill="#f1e1c5"/>
  <path d="M716 734c32-44 68-68 108-72 44-4 88 16 134 62-30 44-70 68-118 72-50 6-94-14-124-62Z" fill="#cc6546"/>
  <circle cx="772" cy="706" r="18" fill="#6d9b59"/>
  <circle cx="832" cy="744" r="16" fill="#6d9b59"/>
  <circle cx="896" cy="702" r="18" fill="#6d9b59"/>
  <rect x="430" y="444" width="26" height="188" rx="13" fill="#6d4331"/>
  <rect x="458" y="444" width="26" height="188" rx="13" fill="#6d4331"/>
  <rect x="1132" y="446" width="30" height="184" rx="15" fill="#6d4331"/>
  <path d="M1164 446v-110c0-22 12-34 28-34 18 0 30 12 30 34v110" fill="#6d4331"/>
  <rect x="784" y="464" width="32" height="118" rx="16" fill="#d7a26c"/>
  <path d="M768 464h64l-16-126c-4-26-18-38-34-38-18 0-30 12-34 38l20 126Z" fill="#f3e1cc"/>
  <text x="800" y="1008" text-anchor="middle" font-family="Poppins, Arial, sans-serif" font-size="72" font-weight="700" fill="#5d392a">Managed table visual</text>
</svg>
