<svg xmlns="http://www.w3.org/2000/svg" viewBox="0 0 1600 1200" role="img" aria-label="Managed dining room placeholder">
  <defs>
    <linearGradient id="bg" x1="0" y1="0" x2="1" y2="1">
      <stop offset="0" stop-color="#fbf1e6"/>
      <stop offset="1" stop-color="#f3dfca"/>
    </linearGradient>
    <linearGradient id="floor" x1="0" y1="0" x2="1" y2="0">
      <stop offset="0" stop-color="#b67448"/>
      <stop offset="1" stop-color="#8f5636"/>
    </linearGradient>
  </defs>
  <rect width="1600" height="1200" fill="url(#bg)"/>
  <rect x="0" y="760" width="1600" height="440" fill="url(#floor)"/>
  <circle cx="250" cy="210" r="84" fill="#fff8ef" opacity=".85"/>
  <circle cx="1360" cy="170" r="72" fill="#fff4e4" opacity=".72"/>
  <rect x="180" y="188" width="1240" height="360" rx="32" fill="#f8ead8" stroke="#ead3bb" stroke-width="10"/>
  <rect x="260" y="254" width="210" height="210" rx="24" fill="#d6a16d"/>
  <rect x="695" y="238" width="210" height="228" rx="24" fill="#d6a16d"/>
  <rect x="1130" y="254" width="210" height="210" rx="24" fill="#d6a16d"/>
  <rect x="534" y="302" width="64" height="162" rx="20" fill="#7a4a32"/>
  <rect x="1004" y="302" width="64" height="162" rx="20" fill="#7a4a32"/>
  <rect x="300" y="612" width="1000" height="38" rx="19" fill="#6b3f2d"/>
  <rect x="456" y="650" width="72" height="182" rx="24" fill="#6b3f2d"/>
  <rect x="1072" y="650" width="72" height="182" rx="24" fill="#6b3f2d"/>
  <ellipse cx="800" cy="618" rx="240" ry="86" fill="#fcf8f1" stroke="#ead6be" stroke-width="10"/>
  <ellipse cx="800" cy="618" rx="138" ry="42" fill="#efe0ca"/>
  <circle cx="800" cy="618" r="44" fill="#d66c43"/>
  <circle cx="760" cy="602" r="13" fill="#6c955f"/>
  <circle cx="838" cy="634" r="11" fill="#6c955f"/>
  <path d="M200 916c128-102 238-142 332-120 64 16 115 56 184 50 92-8 127-98 233-106 116-8 160 90 278 110 96 16 187-18 272-84v254H200V916Z" fill="#734632" opacity=".9"/>
  <text x="800" y="1042" text-anchor="middle" font-family="Poppins, Arial, sans-serif" font-size="72" font-weight="700" fill="#fff5ea">Managed dining room visual</text>
</svg>
