<svg xmlns="http://www.w3.org/2000/svg" viewBox="0 0 1600 900" role="img" aria-labelledby="title desc">
  <title id="title">Cafe preset hero</title>
  <desc id="desc">Soft coffee-inspired hero illustration for cafe and brunch website presets.</desc>
  <defs>
    <linearGradient id="bg" x1="0%" y1="0%" x2="100%" y2="100%">
      <stop offset="0%" stop-color="#231a18"/>
      <stop offset="45%" stop-color="#8b654a"/>
      <stop offset="100%" stop-color="#f1d2a6"/>
    </linearGradient>
    <linearGradient id="cup" x1="0%" y1="0%" x2="100%" y2="100%">
      <stop offset="0%" stop-color="#fff8ef"/>
      <stop offset="100%" stop-color="#ecd9bb"/>
    </linearGradient>
  </defs>
  <rect width="1600" height="900" fill="url(#bg)"/>
  <circle cx="1320" cy="150" r="240" fill="rgba(255,255,255,0.07)"/>
  <circle cx="260" cy="780" r="300" fill="rgba(255,255,255,0.06)"/>
  <rect x="150" y="170" width="450" height="260" rx="40" fill="rgba(255,255,255,0.1)"/>
  <path d="M190 225h250" stroke="rgba(255,255,255,0.24)" stroke-width="16" stroke-linecap="round"/>
  <path d="M190 275h330" stroke="rgba(255,255,255,0.18)" stroke-width="14" stroke-linecap="round"/>
  <path d="M190 325h290" stroke="rgba(255,255,255,0.12)" stroke-width="12" stroke-linecap="round"/>
  <g transform="translate(900 180)">
    <ellipse cx="170" cy="430" rx="240" ry="34" fill="rgba(0,0,0,0.18)"/>
    <rect x="30" y="120" width="280" height="230" rx="70" fill="url(#cup)"/>
    <path d="M310 175c56 0 102 46 102 102s-46 102-102 102h-12v-48h12c29 0 54-25 54-54s-25-54-54-54h-12v-48z" fill="#f2dfc0"/>
    <rect x="60" y="150" width="220" height="130" rx="55" fill="#6a402a"/>
    <path d="M130 88c0 44-34 55-34 96 0 24 11 47 32 61" fill="none" stroke="rgba(255,255,255,0.5)" stroke-width="14" stroke-linecap="round"/>
    <path d="M190 58c0 56-39 66-39 116 0 25 10 43 27 59" fill="none" stroke="rgba(255,255,255,0.46)" stroke-width="12" stroke-linecap="round"/>
    <path d="M248 98c0 40-29 48-29 83 0 20 8 36 22 48" fill="none" stroke="rgba(255,255,255,0.44)" stroke-width="10" stroke-linecap="round"/>
    <circle cx="95" cy="430" r="44" fill="#e1ba74"/>
    <circle cx="168" cy="430" r="44" fill="#e1ba74"/>
    <circle cx="241" cy="430" r="44" fill="#e1ba74"/>
  </g>
</svg>
