<svg xmlns="http://www.w3.org/2000/svg" viewBox="0 0 1600 900" role="img" aria-labelledby="title desc">
  <title id="title">Fast service preset hero</title>
  <desc id="desc">Dynamic warm red and amber hero illustration for quick-service restaurant launches.</desc>
  <defs>
    <linearGradient id="bg" x1="0%" y1="0%" x2="100%" y2="100%">
      <stop offset="0%" stop-color="#170c0f"/>
      <stop offset="38%" stop-color="#9d1d1d"/>
      <stop offset="100%" stop-color="#ff992e"/>
    </linearGradient>
    <linearGradient id="panel" x1="0%" y1="0%" x2="100%" y2="0%">
      <stop offset="0%" stop-color="#ffd05e"/>
      <stop offset="100%" stop-color="#fff0bc"/>
    </linearGradient>
  </defs>
  <rect width="1600" height="900" fill="url(#bg)"/>
  <g opacity="0.3" fill="none" stroke="rgba(255,255,255,0.18)" stroke-width="18">
    <path d="M210 180c160-65 328-78 503-42"/>
    <path d="M870 150c187 1 343 50 483 149"/>
    <path d="M155 700c170-54 335-67 497-37"/>
  </g>
  <rect x="115" y="150" width="520" height="360" rx="48" fill="rgba(255,255,255,0.08)"/>
  <rect x="155" y="190" width="320" height="30" rx="15" fill="rgba(255,255,255,0.22)"/>
  <rect x="155" y="250" width="410" height="24" rx="12" fill="rgba(255,255,255,0.16)"/>
  <rect x="155" y="300" width="360" height="24" rx="12" fill="rgba(255,255,255,0.12)"/>
  <rect x="155" y="380" width="210" height="56" rx="28" fill="url(#panel)"/>
  <g transform="translate(970 210)">
    <circle cx="170" cy="170" r="170" fill="rgba(255,255,255,0.09)"/>
    <circle cx="170" cy="170" r="132" fill="#241415"/>
    <circle cx="170" cy="170" r="118" fill="#f4e5bf"/>
    <path d="M78 185c44-54 90-81 138-81 49 0 95 27 139 81-35 33-82 55-139 55s-103-22-138-55z" fill="#cf422d"/>
    <path d="M96 145c36-29 76-43 120-43 44 0 84 14 119 43-18 13-39 24-64 31-37 11-74 11-111 0-24-7-45-18-64-31z" fill="#3d7f41"/>
    <rect x="50" y="238" width="240" height="26" rx="13" fill="#ffd05e"/>
  </g>
</svg>
