<svg xmlns="http://www.w3.org/2000/svg" viewBox="0 0 1600 900" role="img" aria-labelledby="title desc">
  <title id="title">Traditional preset hero</title>
  <desc id="desc">Warm hospitality hero illustration for family and traditional restaurant presets.</desc>
  <defs>
    <linearGradient id="bg" x1="0%" y1="0%" x2="100%" y2="100%">
      <stop offset="0%" stop-color="#261514"/>
      <stop offset="45%" stop-color="#7e2f24"/>
      <stop offset="100%" stop-color="#d3a067"/>
    </linearGradient>
    <linearGradient id="tagine" x1="0%" y1="0%" x2="100%" y2="100%">
      <stop offset="0%" stop-color="#f9e8c6"/>
      <stop offset="100%" stop-color="#d9b27d"/>
    </linearGradient>
  </defs>
  <rect width="1600" height="900" fill="url(#bg)"/>
  <path d="M0 690c178-54 356-67 534-40 140 22 287 22 441 0 193-28 402-5 625 68v182H0z" fill="rgba(0,0,0,0.12)"/>
  <g transform="translate(140 150)">
    <rect x="0" y="0" width="460" height="300" rx="42" fill="rgba(255,255,255,0.09)"/>
    <path d="M48 70h290" stroke="rgba(255,255,255,0.24)" stroke-width="18" stroke-linecap="round"/>
    <path d="M48 130h360" stroke="rgba(255,255,255,0.17)" stroke-width="14" stroke-linecap="round"/>
    <path d="M48 182h320" stroke="rgba(255,255,255,0.12)" stroke-width="12" stroke-linecap="round"/>
  </g>
  <g transform="translate(860 180)">
    <ellipse cx="220" cy="470" rx="260" ry="38" fill="rgba(0,0,0,0.18)"/>
    <ellipse cx="220" cy="420" rx="240" ry="86" fill="#40211b"/>
    <ellipse cx="220" cy="408" rx="210" ry="62" fill="#7f5a35"/>
    <circle cx="220" cy="144" r="34" fill="#f8e0b4"/>
    <path d="M120 326c45-148 87-226 100-236 16 12 57 89 100 236-27 16-62 26-100 26-39 0-73-10-100-26z" fill="url(#tagine)"/>
    <path d="M160 310c22-18 43-33 60-47 17 14 37 29 60 47-18 14-38 25-60 32-22-7-42-18-60-32z" fill="#b4412a"/>
    <circle cx="134" cy="406" r="26" fill="#c74a34"/>
    <circle cx="198" cy="388" r="24" fill="#4d7f3b"/>
    <circle cx="248" cy="420" r="26" fill="#f1ca6f"/>
    <circle cx="302" cy="396" r="24" fill="#c74a34"/>
  </g>
</svg>
