<svg width="1200" height="800" viewBox="0 0 1200 800" fill="none" xmlns="http://www.w3.org/2000/svg">
  <rect width="1200" height="800" rx="48" fill="#F4EFEA"/>
  <rect x="70" y="70" width="1060" height="660" rx="38" fill="url(#bg)"/>
  <path d="M440 300H760V520C760 578 713 625 655 625H545C487 625 440 578 440 520V300Z" fill="#FFF8F1"/>
  <path d="M760 345H820C870 345 910 385 910 435C910 485 870 525 820 525H760" stroke="#E6D3BE" stroke-width="28" stroke-linecap="round"/>
  <path d="M500 220C520 180 520 145 500 110" stroke="#9A6B4D" stroke-width="16" stroke-linecap="round"/>
  <path d="M600 220C620 175 620 140 600 96" stroke="#9A6B4D" stroke-width="16" stroke-linecap="round"/>
  <path d="M700 220C720 182 720 147 700 112" stroke="#9A6B4D" stroke-width="16" stroke-linecap="round"/>
  <rect x="470" y="355" width="260" height="102" rx="51" fill="#A55F39"/>
  <text x="600" y="666" text-anchor="middle" fill="#5F3D29" font-family="Georgia, serif" font-size="54">Coffee &amp; Hot Drinks</text>
  <defs>
    <linearGradient id="bg" x1="120" y1="100" x2="1080" y2="700" gradientUnits="userSpaceOnUse">
      <stop stop-color="#EDE0D0"/>
      <stop offset="1" stop-color="#DCC6AC"/>
    </linearGradient>
  </defs>
</svg>
