<svg width="1200" height="800" viewBox="0 0 1200 800" fill="none" xmlns="http://www.w3.org/2000/svg">
  <rect width="1200" height="800" rx="48" fill="#EEF8FC"/>
  <rect x="70" y="70" width="1060" height="660" rx="38" fill="url(#bg)"/>
  <ellipse cx="600" cy="408" rx="278" ry="192" fill="#FFFDF8" stroke="#BCD9E8" stroke-width="18"/>
  <path d="M454 412C520 352 655 344 737 388C785 414 812 455 822 502C756 532 657 549 566 535C487 523 421 489 384 444C399 433 421 422 454 412Z" fill="#6FB7DA"/>
  <path d="M714 414C760 376 824 371 868 400C837 435 790 456 742 456L714 414Z" fill="#4D93BD"/>
  <circle cx="532" cy="425" r="10" fill="#14374E"/>
  <circle cx="474" cy="514" r="24" fill="#F58B63"/>
  <circle cx="724" cy="502" r="22" fill="#FFB275"/>
  <circle cx="650" cy="534" r="18" fill="#F58B63"/>
  <text x="600" y="666" text-anchor="middle" fill="#1F4B66" font-family="Georgia, serif" font-size="54">Seafood &amp; Fish</text>
  <defs>
    <linearGradient id="bg" x1="120" y1="100" x2="1080" y2="700" gradientUnits="userSpaceOnUse">
      <stop stop-color="#DDF2FA"/>
      <stop offset="1" stop-color="#BEDFED"/>
    </linearGradient>
  </defs>
</svg>
