<svg width="1200" height="800" viewBox="0 0 1200 800" fill="none" xmlns="http://www.w3.org/2000/svg">
  <rect width="1200" height="800" rx="48" fill="#FFF7EC"/>
  <rect x="70" y="70" width="1060" height="660" rx="38" fill="url(#bg)"/>
  <rect x="310" y="290" width="580" height="78" rx="39" fill="#F2B04A"/>
  <rect x="340" y="350" width="520" height="120" rx="60" fill="#7A4227"/>
  <rect x="355" y="398" width="490" height="44" rx="22" fill="#FBE27D"/>
  <path d="M360 330C390 285 450 250 520 250H680C750 250 810 285 840 330H360Z" fill="#E8A34C"/>
  <path d="M385 386C420 360 460 346 503 346H697C740 346 780 360 815 386H385Z" fill="#67A44F"/>
  <text x="600" y="664" text-anchor="middle" fill="#6E311B" font-family="Georgia, serif" font-size="54">Street Food</text>
  <defs>
    <linearGradient id="bg" x1="120" y1="110" x2="1080" y2="690" gradientUnits="userSpaceOnUse">
      <stop stop-color="#FFE7BF"/>
      <stop offset="1" stop-color="#F6C784"/>
    </linearGradient>
  </defs>
</svg>
